# xmcd CD database file
#
# Track frame offsets:
#	150
#	21763
#	50468
#	71355
#	101823
#	115275
#	154400
#	189095
#	220150
#	245658
#
# Disc length: 3757 seconds
#
# Revision: 0
# Processed by: cddbd v1.4PL0 Copyright (c) Steve Scherf et al.
# Submitted via: CDex 1.50
#
DISCID=880eab0a
DTITLE=Lynn Seaton - Bassman's Basement
DYEAR=1993
DGENRE=Jazz
TTITLE0=Secret Love
TTITLE1=Lover Man
TTITLE2=Oleo
TTITLE3=The Peacocks
TTITLE4=Major's Grand Slam
TTITLE5=Love Walked In
TTITLE6=Marianna's Waltz
TTITLE7=But Not For Me
TTITLE8=Naptown Zebras
TTITLE9=Soulful Drums
EXTD=YEAR: 1993
EXTT0=
EXTT1=
EXTT2=
EXTT3=
EXTT4=
EXTT5=
EXTT6=
EXTT7=
EXTT8=
EXTT9=
PLAYORDER=
